<svg width="64" height="64" viewBox="0 0 64 64" fill="none" xmlns="http://www.w3.org/2000/svg">
<path opacity="0.15" d="M13.2545 26.1612C13.5151 23.4239 15.8141 21.3335 18.5638 21.3335H45.4361C48.1858 21.3335 50.4848 23.4239 50.7454 26.1612L52.7772 47.4945C53.0754 50.6256 50.6132 53.3335 47.4679 53.3335H16.532C13.3867 53.3335 10.9245 50.6256 11.2227 47.4945L13.2545 26.1612Z" fill="#FF926B"/>
<path d="M11.2227 47.4944L9.23172 47.3047L11.2227 47.4944ZM52.7772 47.4944L54.7682 47.3047L52.7772 47.4944ZM50.7454 26.161L48.7545 26.3506L50.7454 26.161ZM13.2545 26.161L15.2454 26.3506L13.2545 26.161ZM19.3333 29.3333C19.3333 30.4379 20.2287 31.3333 21.3333 31.3333C22.4379 31.3333 23.3333 30.4379 23.3333 29.3333H19.3333ZM40.6666 29.3333C40.6666 30.4379 41.562 31.3333 42.6666 31.3333C43.7712 31.3333 44.6666 30.4379 44.6666 29.3333H40.6666ZM18.5638 23.3333H45.4361V19.3333H18.5638V23.3333ZM48.7545 26.3506L50.7862 47.684L54.7682 47.3047L52.7364 25.9714L48.7545 26.3506ZM47.4679 51.3333H16.532V55.3333H47.4679V51.3333ZM13.2137 47.684L15.2454 26.3506L11.2635 25.9714L9.23172 47.3047L13.2137 47.684ZM16.532 51.3333C14.5662 51.3333 13.0273 49.6409 13.2137 47.684L9.23172 47.3047C8.82169 51.61 12.2073 55.3333 16.532 55.3333V51.3333ZM50.7862 47.684C50.9726 49.6409 49.4337 51.3333 47.4679 51.3333V55.3333C51.7927 55.3333 55.1782 51.61 54.7682 47.3047L50.7862 47.684ZM45.4361 23.3333C47.1547 23.3333 48.5915 24.6398 48.7545 26.3506L52.7364 25.9714C52.378 22.2077 49.2169 19.3333 45.4361 19.3333V23.3333ZM18.5638 19.3333C14.783 19.3333 11.6219 22.2077 11.2635 25.9714L15.2454 26.3506C15.4084 24.6399 16.8452 23.3333 18.5638 23.3333V19.3333ZM23.3333 18.6667C23.3333 13.8802 27.2135 10 31.9999 10V6C25.0043 6 19.3333 11.6711 19.3333 18.6667H23.3333ZM31.9999 10C36.7864 10 40.6666 13.8802 40.6666 18.6667H44.6666C44.6666 11.6711 38.9956 6 31.9999 6V10ZM19.3333 18.6667V29.3333H23.3333V18.6667H19.3333ZM40.6666 18.6667V29.3333H44.6666V18.6667H40.6666Z" fill="black"/>
</svg>
