<?xml version="1.0" encoding="UTF-8"?>
<svg width="1200px" height="1200px" viewBox="0 0 1200 1200" version="1.1" xmlns="http://www.w3.org/2000/svg" xmlns:xlink="http://www.w3.org/1999/xlink">
    <title>Artboard</title>
    <g id="Artboard" stroke="none" stroke-width="1" fill="none" fill-rule="evenodd">
        <rect id="Rectangle" fill="#808080" x="304" y="375" width="109" height="193" rx="19"></rect>
        <g id="Group" transform="translate(126.000000, 333.000000)">
            <path d="M521.401807,35.4584541 L850.338229,279.89412 C868.069817,293.070625 871.762441,318.126585 858.585936,335.858174 C851.039242,346.013739 839.132649,352 826.480056,352 L120.890864,352 C98.7994742,352 80.8908642,334.09139 80.8908642,312 C80.8908642,299.347407 86.8771249,287.440814 97.0326907,279.89412 L425.969113,35.4584541 C454.297368,14.4074685 493.073552,14.4074685 521.401807,35.4584541 Z" id="Triangle" fill="#8A6F52"></path>
            <path d="M233.575821,267.00367 L434.575821,153.167855 C459.033586,139.316266 488.966414,139.316266 513.424179,153.167855 L714.424179,267.00367 C739.500226,281.205422 755,307.796616 755,336.614977 L755,621.840077 C755,666.022857 719.18278,701.840077 675,701.840077 L273,701.840077 C228.81722,701.840077 193,666.022857 193,621.840077 L193,336.614977 C193,307.796616 208.499774,281.205422 233.575821,267.00367 Z" id="Rectangle" fill="#E2B484"></path>
            <rect id="Rectangle" fill="#8A6F52" transform="translate(313.796399, 215.993565) rotate(-35.000000) translate(-313.796399, -215.993565) " x="137.296399" y="173.493565" width="353" height="85"></rect>
            <rect id="Rectangle" fill="#8A6F52" transform="translate(634.796399, 215.993565) scale(-1, 1) rotate(-35.000000) translate(-634.796399, -215.993565) " x="458.296399" y="173.493565" width="353" height="85"></rect>
            <path d="M550,480 L602,480 C615.807119,480 627,491.192881 627,505 L627,702 L627,702 L525,702 L525,505 C525,491.192881 536.192881,480 550,480 Z" id="Rectangle" fill="#6F4110"></path>
            <rect id="Rectangle" fill="#FFDB2D" x="283" y="403" width="128" height="128" rx="25"></rect>
        </g>
        <path d="M489.630137,316 L742.608611,316 C756.415729,316 767.608611,327.192881 767.608611,341 L767.608611,606.088967 C767.608612,614.19571 763.677752,621.799174 757.063467,626.486447 C683.202312,678.828816 638.716438,705 623.605846,705 C608.483599,705 559.378342,678.788429 476.290073,626.365286 C469.032032,621.785946 464.630137,613.803831 464.630137,605.221901 L464.630137,341 C464.630137,327.192881 475.823018,316 489.630137,316 Z" id="Rectangle" fill="#FFBF58"></path>
        <circle id="Oval" fill="#FFE97D" cx="616.5" cy="510.5" r="57.5"></circle>
        <g id="Group-3" transform="translate(621.312374, 557.500000) scale(-1, 1) translate(-621.312374, -557.500000) translate(513.939289, 515.000000)" fill="#808080">
            <path d="M0,0 L214.746171,0 C214.746171,2.85308048 201.184351,10.6589784 174.060711,23.4176936 C168.360923,26.0988223 148.676718,38.1447707 133.346205,39.2706432 C92.8299271,42.2461574 44.7454391,30.9422253 28.5138157,27.7785027 C13.5982619,24.8712967 4.09365669,15.6117958 0,0 Z" id="Rectangle" transform="translate(107.373086, 19.882383) scale(-1, 1) translate(-107.373086, -19.882383) "></path>
            <rect id="Rectangle" x="59.0607112" y="17" width="99" height="54" rx="2"></rect>
            <path d="M46.9020435,65.0347578 C74.94633,59.515193 95.4992192,56.7554106 108.560711,56.7554106 C121.609397,56.7554106 141.836854,59.5097842 169.243082,65.0185312 C172.044952,65.5817153 174.060711,68.0429663 174.060711,70.9008774 L174.060711,77.6419148 C174.060715,80.9556255 171.374422,83.6419187 168.060711,83.6419187 C167.662821,83.6419187 167.265917,83.6023397 166.875861,83.5237663 C140.321389,78.1745888 120.883005,75.5 108.560711,75.5 C96.2114775,75.5 76.4322375,78.1862962 49.2229914,83.5588885 C45.9720536,84.2007946 42.8162759,82.0857628 42.1743634,78.8348263 C42.0987755,78.4520151 42.0607112,78.0627432 42.0607112,77.6725408 L42.0607112,70.9218177 C42.0607124,68.0548204 44.0890121,65.5884074 46.9020435,65.0347578 Z" id="Rectangle"></path>
        </g>
        <ellipse id="Oval" fill="#EFEFEF" cx="296.5" cy="333" rx="61.5" ry="31"></ellipse>
        <ellipse id="Oval" fill="#EFEFEF" cx="269.282258" cy="235.5" rx="88.2822581" ry="44.5"></ellipse>
        <g id="Group-2" transform="translate(588.015819, 426.376716) scale(-1, 1) rotate(-90.000000) translate(-588.015819, -426.376716) translate(521.356026, 340.840561)">
            <rect id="Rectangle" fill="#6F4110" transform="translate(92.842345, 110.463672) rotate(-30.000000) translate(-92.842345, -110.463672) " x="83.3423452" y="45.9636719" width="19" height="129" rx="9.5"></rect>
            <rect id="Rectangle" fill="#808080" transform="translate(52.864883, 49.751039) rotate(-35.000000) translate(-52.864883, -49.751039) " x="9.68510722" y="19.251039" width="86.3595506" height="61" rx="18"></rect>
        </g>
        <g id="Group-4" transform="translate(251.000000, 835.000000)">
            <rect id="Rectangle" fill="#FFC600" transform="translate(83.050283, 110.513874) rotate(-32.000000) translate(-83.050283, -110.513874) " x="75.0502826" y="36.013874" width="16" height="149" rx="8"></rect>
            <circle id="Oval" fill="#E93939" cx="30.5" cy="30.5" r="30.5"></circle>
            <circle id="Oval" fill="#FFFFFF" cx="31.5" cy="15.5" r="5.5"></circle>
        </g>
        <g id="Group-2" transform="translate(358.560740, 918.633888) rotate(-150.000000) translate(-358.560740, -918.633888) translate(313.560740, 822.184859)">
            <rect id="Rectangle" fill="#BA7E37" x="30.5407079" y="131.898058" width="29" height="61" rx="14.5"></rect>
            <path d="M24.3901383,35.4564548 L34.6769145,18.3222203 C38.3242047,12.247088 46.2057854,10.2789332 52.2809177,13.9262234 C54.0844751,15.0090142 55.5941237,16.5186628 56.6769145,18.3222203 L66.9636908,35.4564548 C67.4303786,36.2337964 67.6769145,37.1234067 67.6769145,38.0300806 L67.6769145,137 L67.6769145,137 L23.6769145,137 L23.6769145,38.0300806 C23.6769145,37.1234067 23.9234505,36.2337964 24.3901383,35.4564548 Z" id="Rectangle" fill="#F4F4F4"></path>
            <rect id="Rectangle" fill="#D8D8D8" x="0" y="128.82755" width="90" height="21" rx="10.5"></rect>
        </g>
        <rect id="Rectangle" fill="#6F4110" x="295" y="924" width="197" height="111" rx="17"></rect>
    </g>
</svg>