<?xml version="1.0" encoding="UTF-8"?>
<svg width="632px" height="632px" viewBox="0 0 632 632" version="1.1" xmlns="http://www.w3.org/2000/svg" xmlns:xlink="http://www.w3.org/1999/xlink">
    <title>Fireball</title>
    <g id="Artboard" stroke="none" stroke-width="1" fill="none" fill-rule="evenodd">
        <path d="M317.999992,520 C389.241868,520 480.240388,499.884262 480.240388,354.364891 C480.240388,339 497.787594,319.738295 505.229489,292.258007 C513.580662,261.420078 500.728694,189.484631 488.669208,206.386799 C476.609723,223.288968 492.771162,244.560782 469.922154,266.819519 C457.073553,279.336195 428.324912,278.525652 427.499992,274.482202 C421.186974,243.53781 442.6167,195.053885 432.707362,162.8985 C408.419328,84.0848482 345.954325,28.9644035 317.999992,28.9644035 C297.908398,28.9644035 357.266581,120.961127 211.160774,180.422486 C176.489625,194.532764 201.514291,253.344006 175.476937,274.482202 C166.104713,282.090959 169.229011,271.668303 157.51795,253.228646 C148.95219,239.741423 136.999992,324.539659 136.999992,339 C136.999992,438.96354 218.03646,520 317.999992,520 Z" id="Oval" fill="#FF5C5C"></path>
        <path d="M314.042783,466 C347.122148,466 389.375017,456.659764 389.375017,389.091513 C389.375017,381.957213 397.522619,373.013526 400.978076,360.253747 C404.855732,345.934932 398.888245,312.533521 393.288727,320.381617 C387.689209,328.229713 395.193366,338.106743 384.584005,348.442026 C378.618081,354.253829 365.269374,353.877474 364.886347,352 C361.955053,337.631752 371.905406,315.119463 367.304255,300.188921 C356.026718,263.593789 327.022669,238 314.042783,238 C304.713754,238 332.27523,280.716359 264.434682,308.325742 C248.336008,314.877494 259.95558,342.185012 247.865791,352 C243.514036,355.532935 244.964724,350.693437 239.526989,342.131447 C235.549694,335.868995 229.999992,375.242918 229.999992,381.957213 C229.999992,428.372763 267.627233,466 314.042783,466 Z" id="Oval" fill="#FFED5C"></path>
    </g>
</svg>