<?xml version="1.0" encoding="UTF-8"?>
<svg width="1200px" height="1200px" viewBox="0 0 1200 1200" version="1.1" xmlns="http://www.w3.org/2000/svg" xmlns:xlink="http://www.w3.org/1999/xlink">
    <title>Artboard</title>
    <defs>
        <path d="M34.9064195,0 L99.1008109,0 C109.497457,-8.28564328e-07 118.808937,6.43443878 122.485473,16.1593209 C129.495158,34.7007817 133,56.3143414 133,81 C133,105.685659 129.495158,127.299218 122.485473,145.840679 C118.808937,155.565561 109.497457,162 99.1008117,162 L34.906418,162 C24.6815244,161.999999 15.4872379,155.773488 11.6921811,146.278964 C3.89739371,126.777859 0,105.018205 0,81 C0,56.9817945 3.89739403,35.2221391 11.6921821,15.7210339 C15.4872404,6.22651074 24.6815265,1.87828238e-15 34.9064195,0 Z" id="path-1"></path>
        <path d="M33.4456211,0 L89.4488199,0 C99.9816042,4.58592268e-07 109.3846,6.6015163 112.96236,16.5080383 C118.987453,33.1910239 122,52.5216778 122,74.5 C122,96.4783221 118.987453,115.808976 112.96236,132.491961 C109.3846,142.398484 99.9816042,149 89.4488195,149 L33.445621,149 C23.1001505,149 13.8233886,142.627849 10.110825,132.971471 C3.37027499,115.439302 0,95.9488112 0,74.5 C0,53.0511886 3.37027506,33.5606979 10.1108252,16.028528 C13.8233893,6.37215082 23.1001509,1.90043204e-15 33.4456211,0 Z" id="path-3"></path>
        <path d="M34.9064195,0 L99.1008109,0 C109.497457,-8.28564328e-07 118.808937,6.43443878 122.485473,16.1593209 C129.495158,34.7007817 133,56.3143414 133,81 C133,105.685659 129.495158,127.299218 122.485473,145.840679 C118.808937,155.565561 109.497457,162 99.1008117,162 L34.906418,162 C24.6815244,161.999999 15.4872379,155.773488 11.6921811,146.278964 C3.89739371,126.777859 0,105.018205 0,81 C0,56.9817945 3.89739403,35.2221391 11.6921821,15.7210339 C15.4872404,6.22651074 24.6815265,1.87828238e-15 34.9064195,0 Z" id="path-5"></path>
    </defs>
    <g id="Artboard" stroke="none" stroke-width="1" fill="none" fill-rule="evenodd">
        <g id="Group" transform="translate(-69.000000, 333.000000)">
            <rect id="Rectangle" fill="#808080" x="297" y="35" width="109" height="193" rx="19"></rect>
            <path d="M691.915139,20.4069248 L1168.24038,276.777698 C1187.69312,287.247674 1194.97509,311.504829 1184.50511,330.957569 C1177.52972,343.91754 1164.00073,352 1149.28281,352 L158.717187,352 C136.625797,352 118.717187,334.09139 118.717187,312 C118.717187,297.282085 126.799647,283.753095 139.759618,276.777698 L616.084861,20.4069248 C639.756183,7.66639705 668.243817,7.66639705 691.915139,20.4069248 Z" id="Triangle" fill="#8A6F52"></path>
            <path d="M316.641351,269.78251 L624.641351,143.452022 C644.094084,135.473213 665.905916,135.473213 685.358649,143.452022 L993.358649,269.78251 C1023.38857,282.0997 1043,311.340596 1043,343.798403 L1043,622 C1043,666.18278 1007.18278,702 963,702 L347,702 C302.81722,702 267,666.18278 267,622 L267,343.798403 C267,311.340596 286.611431,282.0997 316.641351,269.78251 Z" id="Rectangle" fill="#D8D8D8"></path>
            <polygon id="Rectangle" fill="#8A6F52" transform="translate(433.247085, 215.993565) rotate(-35.000000) translate(-433.247085, -215.993565) " points="204.062658 136.603532 647.228997 199.738682 662.431512 295.383598 219.265173 232.248447"></polygon>
            <polygon id="Rectangle" fill="#8A6F52" transform="translate(876.439916, 215.993565) scale(-1, 1) rotate(-35.000000) translate(-876.439916, -215.993565) " points="647.255489 136.603532 1090.42183 199.738682 1105.62434 295.383598 662.458004 232.248447"></polygon>
            <path d="M582,480 L728,480 C741.807119,480 753,491.192881 753,505 L753,702 L753,702 L557,702 L557,505 C557,491.192881 568.192881,480 582,480 Z" id="Rectangle" fill="#6F4110"></path>
            <rect id="Rectangle" fill="#727272" x="798" y="463" width="100" height="102" rx="25"></rect>
            <rect id="Rectangle" fill="#727272" x="412" y="463" width="100" height="102" rx="25"></rect>
        </g>
        <path d="M449.630137,260 L770.369863,260 C784.176982,260 795.369863,271.192881 795.369863,285 L795.369863,617.856574 C795.369864,625.955936 791.446117,633.553429 784.841773,638.241958 C693.039321,703.413986 637.812338,736 619.160825,736 C600.497936,736 539.536098,703.374228 436.275309,638.122685 C429.025714,633.541593 424.630137,625.564348 424.630137,616.988624 L424.630137,285 C424.630137,271.192881 435.823018,260 449.630137,260 Z" id="Rectangle" fill="#1465C3"></path>
        <g id="Group-2" transform="translate(488.904852, 314.760944)">
            <path d="M218.600609,186.674229 L239.239999,186.674229 C248.076555,186.674229 255.239999,193.837673 255.239999,202.674229 L255.239999,280.267715 C255.239999,289.104271 248.076555,296.267715 239.239999,296.267715 L218.600609,296.267715 C209.764053,296.267715 202.600609,289.104271 202.600609,280.267715 L202.600609,202.674229 C202.600609,193.837673 209.764053,186.674229 218.600609,186.674229 Z" id="Rectangle" fill="#BA7E37" transform="translate(228.920304, 241.470972) rotate(-43.000000) translate(-228.920304, -241.470972) "></path>
            <path d="M74.5111955,58.5390269 L101.035019,13.8387011 C104.980628,7.18920633 113.569658,4.99727414 120.219152,8.94288359 C122.235256,10.1391788 123.918675,11.8225971 125.11497,13.8387011 L151.638793,58.5390269 C152.097,59.3112378 152.338802,60.1925903 152.338802,61.0905119 L152.338802,240.936319 L152.338802,240.936319 L73.8111867,240.936319 L73.8111867,61.0905119 C73.8111867,60.1925903 74.0529888,59.3112378 74.5111955,58.5390269 Z" id="Rectangle" fill="#E2E2E2" transform="translate(113.074994, 117.242087) rotate(-43.000000) translate(-113.074994, -117.242087) "></path>
            <path d="M131.82897,191.877198 L268.924787,191.877198 C276.104489,191.877198 281.924787,197.697496 281.924787,204.877198 L281.924787,216.846594 C281.924787,224.026296 276.104489,229.846594 268.924787,229.846594 L131.82897,229.846594 C124.649269,229.846594 118.82897,224.026296 118.82897,216.846594 L118.82897,204.877198 C118.82897,197.697496 124.649269,191.877198 131.82897,191.877198 Z" id="Rectangle" fill="#AEAEAE" transform="translate(200.376879, 210.861896) rotate(-43.000000) translate(-200.376879, -210.861896) "></path>
        </g>
        <g id="Group-2" transform="translate(446.458067, 314.760944)">
            <path d="M46.3006,186.674229 L66.9399906,186.674229 C75.7765466,186.674229 82.9399906,193.837673 82.9399906,202.674229 L82.9399906,280.267715 C82.9399906,289.104271 75.7765466,296.267715 66.9399906,296.267715 L46.3006,296.267715 C37.464044,296.267715 30.3006,289.104271 30.3006,280.267715 L30.3006,202.674229 C30.3006,193.837673 37.464044,186.674229 46.3006,186.674229 Z" id="Rectangle" fill="#BA7E37" transform="translate(56.620295, 241.470972) rotate(43.000000) translate(-56.620295, -241.470972) "></path>
            <path d="M133.901806,58.5390269 L160.42563,13.8387011 C164.371239,7.18920633 172.960268,4.99727414 179.609763,8.94288359 C181.625867,10.1391788 183.309285,11.8225971 184.50558,13.8387011 L211.029404,58.5390269 C211.487611,59.3112378 211.729413,60.1925903 211.729413,61.0905119 L211.729413,240.936319 L211.729413,240.936319 L133.201797,240.936319 L133.201797,61.0905119 C133.201797,60.1925903 133.443599,59.3112378 133.901806,58.5390269 Z" id="Rectangle" fill="#F4F4F4" transform="translate(172.465605, 117.242087) rotate(43.000000) translate(-172.465605, -117.242087) "></path>
            <path d="M16.615812,191.877198 L153.711629,191.877198 C160.891331,191.877198 166.711629,197.697496 166.711629,204.877198 L166.711629,216.846594 C166.711629,224.026296 160.891331,229.846594 153.711629,229.846594 L16.615812,229.846594 C9.43611027,229.846594 3.61581202,224.026296 3.61581202,216.846594 L3.61581202,204.877198 C3.61581202,197.697496 9.43611027,191.877198 16.615812,191.877198 Z" id="Rectangle" fill="#C6C6C6" transform="translate(85.163720, 210.861896) rotate(43.000000) translate(-85.163720, -210.861896) "></path>
        </g>
        <g id="Path-6-+-Path-6-Mask" transform="translate(860.926857, 873.000000)">
            <mask id="mask-2" fill="white">
                <use xlink:href="#path-1"></use>
            </mask>
            <use id="Mask" fill="#6F4110" xlink:href="#path-1"></use>
            <path d="M4.60436681,25 C17.0449979,32.0631143 38.0449979,35.5946714 67.6043668,35.5946714 C97.1637357,35.5946714 118.163736,32.0631143 130.604367,25" id="Path-6" stroke="#FFDB2D" stroke-width="10" mask="url(#mask-2)"></path>
            <path d="M-0.395633191,124 C12.7361441,131.063114 34.9028107,134.594671 66.1043668,134.594671 C97.3059229,134.594671 119.47259,131.063114 132.604367,124" id="Path-6" stroke="#FFDB2D" stroke-width="10" mask="url(#mask-2)"></path>
        </g>
        <g id="Path-6-+-Path-6-Mask" transform="translate(107.000000, 880.000000)">
            <mask id="mask-4" fill="white">
                <use xlink:href="#path-3"></use>
            </mask>
            <use id="Mask" fill="#5C3C1B" xlink:href="#path-3"></use>
            <path d="M4,23 C15.4532794,29.6666667 34.7866128,33 62,33 C89.2133872,33 108.546721,29.6666667 120,23" id="Path-6" stroke="#CEAF1D" stroke-width="10" mask="url(#mask-4)"></path>
            <path d="M-1,114 C11.0456904,120.666667 31.3790238,124 60,124 C88.6209762,124 108.95431,120.666667 121,114" id="Path-6" stroke="#CEAF1D" stroke-width="10" mask="url(#mask-4)"></path>
        </g>
        <g id="Path-6-+-Path-6-Mask" transform="translate(149.926857, 873.000000)">
            <mask id="mask-6" fill="white">
                <use xlink:href="#path-5"></use>
            </mask>
            <use id="Mask" fill="#6F4110" xlink:href="#path-5"></use>
            <path d="M4.60436681,25 C17.0449979,32.0631143 38.0449979,35.5946714 67.6043668,35.5946714 C97.1637357,35.5946714 118.163736,32.0631143 130.604367,25" id="Path-6" stroke="#FFDB2D" stroke-width="10" mask="url(#mask-6)"></path>
            <path d="M-0.395633191,124 C12.7361441,131.063114 34.9028107,134.594671 66.1043668,134.594671 C97.3059229,134.594671 119.47259,131.063114 132.604367,124" id="Path-6" stroke="#FFDB2D" stroke-width="10" mask="url(#mask-6)"></path>
        </g>
    </g>
</svg>