<?xml version="1.0" encoding="UTF-8"?>
<svg width="987px" height="375px" viewBox="0 0 987 375" version="1.1" xmlns="http://www.w3.org/2000/svg" xmlns:xlink="http://www.w3.org/1999/xlink">
    <title>Artboard</title>
    <defs>
        <linearGradient x1="50%" y1="0%" x2="50%" y2="100%" id="linearGradient-1">
            <stop stop-color="#FFE900" stop-opacity="0" offset="0%"></stop>
            <stop stop-color="#FFE442" offset="100%"></stop>
        </linearGradient>
    </defs>
    <g id="Artboard" stroke="none" stroke-width="1" fill="none" fill-rule="evenodd">
        <g id="Group-11">
            <g id="Group-9" transform="translate(0.000000, 0.005525)">
                <ellipse id="Oval" fill="#FFE442" cx="487.090682" cy="330.994475" rx="462" ry="44"></ellipse>
                <path d="M487,374.996246 C1187.18651,374.703923 926.519251,291.050477 926.519251,187.498123 C926.519251,83.9457691 729.73978,0 487,0 C244.26022,0 47.4807488,83.9457691 47.4807488,187.498123 C47.4807488,291.050477 -213.186513,375.28857 487,374.996246 Z" id="Oval" fill="url(#linearGradient-1)"></path>
            </g>
            <g id="Group-10" transform="translate(45.090682, 0.000000)" fill="#FFD700">
                <path d="M116,155 C118.761424,155 121,157.238576 121,160 L120.999,174.999 L136,175 C138.761424,175 141,177.238576 141,180 L141,195 C141,197.761424 138.761424,200 136,200 L120.999,199.999 L121,215 C121,217.761424 118.761424,220 116,220 L101,220 C98.2385763,220 96,217.761424 96,215 L95.999,199.999 L81,200 C78.2385763,200 76,197.761424 76,195 L76,180 C76,177.238576 78.2385763,175 81,175 L95.999,174.999 L96,160 C96,157.238576 98.2385763,155 101,155 L116,155 Z" id="Combined-Shape"></path>
                <path d="M40,55 C42.7614237,55 45,57.2385763 45,60 L44.999,74.999 L60,75 C62.7614237,75 65,77.2385763 65,80 L65,95 C65,97.7614237 62.7614237,100 60,100 L44.999,99.999 L45,115 C45,117.761424 42.7614237,120 40,120 L25,120 C22.2385763,120 20,117.761424 20,115 L19.999,99.999 L5,100 C2.23857625,100 6.44338575e-16,97.7614237 3.061617e-16,95 L1.2246468e-15,80 C8.86469924e-16,77.2385763 2.23857625,75 5,75 L19.999,74.999 L20,60 C20,57.2385763 22.2385763,55 25,55 L40,55 Z" id="Combined-Shape"></path>
                <path d="M210,22 C212.761424,22 215,24.2385763 215,27 L214.999,41.999 L230,42 C232.761424,42 235,44.2385763 235,47 L235,62 C235,64.7614237 232.761424,67 230,67 L214.999,66.999 L215,82 C215,84.7614237 212.761424,87 210,87 L195,87 C192.238576,87 190,84.7614237 190,82 L189.999,66.999 L175,67 C172.238576,67 170,64.7614237 170,62 L170,47 C170,44.2385763 172.238576,42 175,42 L189.999,41.999 L190,27 C190,24.2385763 192.238576,22 195,22 L210,22 Z" id="Combined-Shape"></path>
                <path d="M634,155 C636.761424,155 639,157.238576 639,160 L638.999,174.999 L654,175 C656.761424,175 659,177.238576 659,180 L659,195 C659,197.761424 656.761424,200 654,200 L638.999,199.999 L639,215 C639,217.761424 636.761424,220 634,220 L619,220 C616.238576,220 614,217.761424 614,215 L613.999,199.999 L599,200 C596.238576,200 594,197.761424 594,195 L594,180 C594,177.238576 596.238576,175 599,175 L613.999,174.999 L614,160 C614,157.238576 616.238576,155 619,155 L634,155 Z" id="Combined-Shape"></path>
                <path d="M699,0 C701.761424,-5.07265313e-16 704,2.23857625 704,5 L703.999,19.999 L719,20 C721.761424,20 724,22.2385763 724,25 L724,40 C724,42.7614237 721.761424,45 719,45 L703.999,44.999 L704,60 C704,62.7614237 701.761424,65 699,65 L684,65 C681.238576,65 679,62.7614237 679,60 L678.999,44.999 L664,45 C661.238576,45 659,42.7614237 659,40 L659,25 C659,22.2385763 661.238576,20 664,20 L678.999,19.999 L679,5 C679,2.23857625 681.238576,5.07265313e-16 684,0 L699,0 Z" id="Combined-Shape"></path>
                <path d="M858,155 C860.761424,155 863,157.238576 863,160 L862.999,174.999 L878,175 C880.761424,175 883,177.238576 883,180 L883,195 C883,197.761424 880.761424,200 878,200 L862.999,199.999 L863,215 C863,217.761424 860.761424,220 858,220 L843,220 C840.238576,220 838,217.761424 838,215 L837.999,199.999 L823,200 C820.238576,200 818,197.761424 818,195 L818,180 C818,177.238576 820.238576,175 823,175 L837.999,174.999 L838,160 C838,157.238576 840.238576,155 843,155 L858,155 Z" id="Combined-Shape"></path>
            </g>
        </g>
    </g>
</svg>