<?xml version="1.0" encoding="UTF-8"?>
<svg width="987px" height="987px" viewBox="0 0 987 987" version="1.1" xmlns="http://www.w3.org/2000/svg" xmlns:xlink="http://www.w3.org/1999/xlink">
    <title>Healer</title>
    <defs>
        <path d="M614.090626,6.8239329 C690.264774,36.0644486 690.057954,222.237763 727.374389,333.387871 C728.540883,336.862368 729.508103,340.063783 730.285044,343.004903 L730.288127,342.993803 C738.578537,367.188142 743,392.626322 743,418.874808 C743,579.865813 574.17001,634.335684 368.996226,634.335684 C163.822441,634.335684 0,579.865813 0,418.874808 C0,387.27086 6.40973659,356.8416 18.264811,328.343753 L18.2774414,328.352755 C53.9557425,216.70571 54.8769494,35.6272595 129.912181,6.8239329 C206.086328,-22.4165829 253.683979,47.0733254 333.419011,124.724514 C334.766161,126.036457 336.057759,127.330621 337.294928,128.607372 L337.279353,128.595034 C348.548289,127.787479 359.962726,127.374808 371.5,127.374808 C383.357176,127.374808 395.084609,127.810681 406.657695,128.663119 L406.644169,128.673155 C407.900689,127.375079 409.213503,126.058994 410.583795,124.724514 C490.318827,47.0733254 537.916478,-22.4165829 614.090626,6.8239329 Z" id="path-1"></path>
    </defs>
    <g id="Artboard" stroke="none" stroke-width="1" fill="none" fill-rule="evenodd">
        <g id="Group-8" transform="translate(32.000000, 0.000000)">
            <g id="Group-3" transform="translate(0.000000, 0.000000)">
                <path d="M413,940.555354 C687.494854,940.555354 712,907.759018 712,754.5 C712,601.240982 578.13314,477 413,477 C247.86686,477 114,601.240982 114,754.5 C114,907.759018 138.505146,940.555354 413,940.555354 Z" id="Oval" fill="#FFDEC2"></path>
                <g id="Group" transform="translate(42.000000, 0.000000)">
                    <g id="Oval">
                        <mask id="mask-2" fill="white">
                            <use xlink:href="#path-1"></use>
                        </mask>
                        <use id="Mask" fill="#FFDEC2" xlink:href="#path-1"></use>
                        <circle fill="#B0927B" mask="url(#mask-2)" cx="648" cy="168.999993" r="262"></circle>
                    </g>
                    <path d="M576.895131,179.752235 C606.027888,179.752235 646.287115,189.329482 629.644654,153.24339 C613.002192,117.157297 606.027888,87.9037394 576.895131,87.9037394 C547.762374,87.9037394 536.044956,117.157297 524.145609,153.24339 C512.246261,189.329482 547.762374,179.752235 576.895131,179.752235 Z" id="Oval" fill="#FDF7F0" transform="translate(577.664233, 134.403739) scale(-1, 1) rotate(-21.000000) translate(-577.664233, -134.403739) "></path>
                    <path d="M160.895131,179.752235 C190.027888,179.752235 230.287115,189.329482 213.644654,153.24339 C197.002192,117.157297 190.027888,87.9037394 160.895131,87.9037394 C131.762374,87.9037394 120.044956,117.157297 108.145609,153.24339 C96.2462614,189.329482 131.762374,179.752235 160.895131,179.752235 Z" id="Oval" fill="#FDF7F0" transform="translate(161.664233, 134.403739) rotate(-21.000000) translate(-161.664233, -134.403739) "></path>
                    <circle id="Oval" fill="#6F6F6F" cx="282.5" cy="351.874808" r="25.5"></circle>
                    <circle id="Oval" fill="#6F6F6F" cx="460.5" cy="351.874808" r="25.5"></circle>
                    <path d="M322.684141,401.235843 C341.326016,400.210828 356.659349,393.515533 368.684141,381.149958 C383.983923,393.515533 399.525313,400.210828 415.308311,401.235843" id="Path-5" stroke="#979797" stroke-width="15" stroke-linecap="round"></path>
                    <circle id="Oval" fill="#FBC7C7" cx="567" cy="462.374808" r="95"></circle>
                    <circle id="Oval" fill="#FBC7C7" cx="162" cy="462.374808" r="95"></circle>
                </g>
                <path d="M282.5,986.569696 C325,986.569696 325,976.614237 325,949 C325,921.385763 305.972102,899 282.5,899 C259.027898,899 240,921.385763 240,949 C240,976.614237 240,986.569696 282.5,986.569696 Z" id="Oval" fill="#FFDEC2"></path>
                <path d="M527.5,986.569696 C570,986.569696 570,976.614237 570,949 C570,921.385763 550.972102,899 527.5,899 C504.027898,899 485,921.385763 485,949 C485,976.614237 485,986.569696 527.5,986.569696 Z" id="Oval" fill="#FFDEC2"></path>
                <ellipse id="Oval" fill="#FFDEC2" cx="712" cy="634.5" rx="114" ry="54.5"></ellipse>
                <ellipse id="Oval" fill="#FFDEC2" cx="114" cy="634.5" rx="114" ry="54.5"></ellipse>
            </g>
            <rect id="Rectangle" fill="#FFE442" x="800" y="416" width="47" height="571" rx="13"></rect>
            <path d="M823.5,254 C879.004617,254 924,298.995383 924,354.5 C924,410.004617 879.004617,455 823.5,455 C767.995383,455 723,410.004617 723,354.5 C723,349.128989 723.421329,343.856385 724.23274,338.713436 C729.883819,366.272974 754.271382,387 783.5,387 C816.913227,387 844,359.913227 844,326.5 C844,293.086773 816.913227,266 783.5,266 C780.500427,266 777.551839,266.218293 774.669256,266.639859 C789.12588,258.587478 805.777209,254 823.5,254 Z" id="Combined-Shape" fill="#FFE442"></path>
            <path d="M331.425739,39.3347979 C355.745563,35.3598772 378.60365,33.3724169 400,33.3724169 C421.563915,33.3724169 445.007413,35.3911286 470.330494,39.4285521 C483.965401,41.602453 493.256382,54.4180249 491.08248,68.0529322 C490.916052,69.0967818 490.683589,70.1290256 490.38649,71.1434478 L469.818182,141.372417 L469.818182,141.372417 C447.658983,138.009624 424.749892,136.328228 401.090909,136.328228 C377.431926,136.328228 354.159199,138.009624 331.272727,141.372417 L311.394312,70.7840998 C307.651655,57.4939135 315.391456,43.6860659 328.681643,39.9434091 C329.584204,39.6892382 330.500351,39.4860468 331.425739,39.3347979 Z" id="Rectangle" fill="#FFFFFF"></path>
            <rect id="Rectangle" fill="#FF0000" x="388" y="54" width="25" height="65" rx="5"></rect>
            <rect id="Rectangle" fill="#FF0000" transform="translate(400.500000, 86.500000) rotate(-90.000000) translate(-400.500000, -86.500000) " x="388" y="54" width="25" height="65" rx="5"></rect>
        </g>
    </g>
</svg>