<?xml version="1.0" encoding="UTF-8"?>
<svg width="987px" height="987px" viewBox="0 0 987 987" version="1.1" xmlns="http://www.w3.org/2000/svg" xmlns:xlink="http://www.w3.org/1999/xlink">
    <title>Mage</title>
    <g id="Artboard" stroke="none" stroke-width="1" fill="none" fill-rule="evenodd">
        <g id="Group-7" transform="translate(28.000000, 0.000000)">
            <path d="M413,940.555354 C687.494854,940.555354 712,907.759018 712,754.5 C712,601.240982 578.13314,477 413,477 C247.86686,477 114,601.240982 114,754.5 C114,907.759018 138.505146,940.555354 413,940.555354 Z" id="Oval" fill="#4C4C4C"></path>
            <g id="Group" transform="translate(42.000000, 0.000000)">
                <path d="M614.090626,6.8239329 C690.264774,36.0644486 690.057954,222.237763 727.374389,333.387871 C728.540883,336.862368 729.508103,340.063783 730.285044,343.004903 L730.288127,342.993803 C738.578537,367.188142 743,392.626322 743,418.874808 C743,579.865813 574.17001,634.335684 368.996226,634.335684 C163.822441,634.335684 0,579.865813 0,418.874808 C0,387.27086 6.40973659,356.8416 18.264811,328.343753 L18.2774414,328.352755 C53.9557425,216.70571 54.8769494,35.6272595 129.912181,6.8239329 C206.086328,-22.4165829 253.683979,47.0733254 333.419011,124.724514 C334.766161,126.036457 336.057759,127.330621 337.294928,128.607372 L337.279353,128.595034 C348.548289,127.787479 359.962726,127.374808 371.5,127.374808 C383.357176,127.374808 395.084609,127.810681 406.657695,128.663119 L406.644169,128.673155 C407.900689,127.375079 409.213503,126.058994 410.583795,124.724514 C490.318827,47.0733254 537.916478,-22.4165829 614.090626,6.8239329 Z" id="Combined-Shape" fill="#4C4C4C"></path>
                <path d="M576.895131,179.752235 C606.027888,179.752235 646.287115,189.329482 629.644654,153.24339 C613.002192,117.157297 606.027888,87.9037394 576.895131,87.9037394 C547.762374,87.9037394 536.044956,117.157297 524.145609,153.24339 C512.246261,189.329482 547.762374,179.752235 576.895131,179.752235 Z" id="Oval" fill="#CACACA" transform="translate(577.664233, 134.403739) scale(-1, 1) rotate(-21.000000) translate(-577.664233, -134.403739) "></path>
                <path d="M160.895131,179.752235 C190.027888,179.752235 230.287115,189.329482 213.644654,153.24339 C197.002192,117.157297 190.027888,87.9037394 160.895131,87.9037394 C131.762374,87.9037394 120.044956,117.157297 108.145609,153.24339 C96.2462614,189.329482 131.762374,179.752235 160.895131,179.752235 Z" id="Oval" fill="#CACACA" transform="translate(161.664233, 134.403739) rotate(-21.000000) translate(-161.664233, -134.403739) "></path>
                <circle id="Oval" stroke="#FFFFFF" fill="#FFFFFF" cx="282.5" cy="351.874808" r="25"></circle>
                <circle id="Oval" stroke="#FFFFFF" fill="#FFFFFF" cx="460.5" cy="351.874808" r="25"></circle>
                <path d="M322.684141,401.235843 C341.326016,400.210828 356.659349,393.515533 368.684141,381.149958 C383.983923,393.515533 399.525313,400.210828 415.308311,401.235843" id="Path-5" stroke="#FFFFFF" stroke-width="15" stroke-linecap="round"></path>
                <circle id="Oval" fill="#FBC7C7" cx="567" cy="462.374808" r="95"></circle>
                <circle id="Oval" fill="#FBC7C7" cx="162" cy="462.374808" r="95"></circle>
            </g>
            <path d="M414,197.840077 C518.106974,197.840077 721.875091,369.569378 695.051665,477 C674.259395,560.275209 390.508747,598.108176 414,601.211315 C421.992779,602.267142 587.628186,626.434937 688.494854,580 C766.937466,543.888192 805,436.912267 805,418.360707 C805,215.396062 547.829838,110.764644 410.996226,103.735713 C274.162614,96.7067817 21,230.029049 21,432.993695 C21,447.842251 56.7099149,549.828444 134.833612,580 C268.83236,631.750633 401.694213,601.291386 410.996226,601.211315 C444.439694,600.923436 150.504773,584.994336 114,477 C85.6621024,393.16624 332.184127,197.840077 414,197.840077 Z" id="Oval" fill="#D8BFA2"></path>
            <path d="M282.5,986.569696 C325,986.569696 325,976.614237 325,949 C325,921.385763 305.972102,899 282.5,899 C259.027898,899 240,921.385763 240,949 C240,976.614237 240,986.569696 282.5,986.569696 Z" id="Oval" fill="#4C4C4C"></path>
            <path d="M527.5,986.569696 C570,986.569696 570,976.614237 570,949 C570,921.385763 550.972102,899 527.5,899 C504.027898,899 485,921.385763 485,949 C485,976.614237 485,986.569696 527.5,986.569696 Z" id="Oval" fill="#4C4C4C"></path>
            <ellipse id="Oval" fill="#4C4C4C" cx="712" cy="634.5" rx="114" ry="54.5"></ellipse>
            <ellipse id="Oval" fill="#4C4C4C" cx="114" cy="634.5" rx="114" ry="54.5"></ellipse>
            <rect id="Rectangle" fill="#D8BFA2" x="76" y="580" width="138" height="109" rx="4"></rect>
            <rect id="Rectangle" fill="#D8BFA2" x="598" y="580" width="138" height="109" rx="4"></rect>
            <path d="M414,599 L704,599 C711.852276,662.008184 718.369225,712.562784 723.550847,750.663799 C728.73247,788.764814 742.844905,845.073778 765.888153,919.59069 C738.49466,943.675225 705.531942,959.478329 667,967 C628.468058,974.521671 589.134724,974.521671 549,967 L414,599 Z" id="Rectangle" fill="#D8BFA2"></path>
            <path d="M61,599 L351,599 C358.852276,662.008184 365.369225,712.562784 370.550847,750.663799 C375.73247,788.764814 389.844905,845.073778 412.888153,919.59069 C385.49466,943.675225 352.531942,959.478329 314,967 C275.468058,974.521671 236.134724,974.521671 196,967 L61,599 Z" id="Rectangle" fill="#D8BFA2" transform="translate(236.944077, 785.820627) scale(-1, 1) translate(-236.944077, -785.820627) "></path>
            <rect id="Rectangle" fill="#AB652D" x="779" y="402" width="47" height="571" rx="13"></rect>
            <circle id="Oval" fill="#AB652D" cx="805" cy="317" r="125"></circle>
            <circle id="Oval" fill="#ED7777" cx="805.5" cy="316.5" r="60.5"></circle>
            <circle id="Oval" fill="#FFFFFF" cx="838" cy="288" r="12"></circle>
        </g>
    </g>
</svg>