<?xml version="1.0" encoding="UTF-8"?>
<svg width="1200px" height="1200px" viewBox="0 0 1200 1200" version="1.1" xmlns="http://www.w3.org/2000/svg" xmlns:xlink="http://www.w3.org/1999/xlink">
    <title>Artboard</title>
    <g id="Artboard" stroke="none" stroke-width="1" fill="none" fill-rule="evenodd">
        <path d="M647.401807,368.458454 L976.338229,612.89412 C994.069817,626.070625 997.762441,651.126585 984.585936,668.858174 C977.039242,679.013739 965.132649,685 952.480056,685 L246.890864,685 C224.799474,685 206.890864,667.09139 206.890864,645 C206.890864,632.347407 212.877125,620.440814 223.032691,612.89412 L551.969113,368.458454 C580.297368,347.407469 619.073552,347.407469 647.401807,368.458454 Z" id="Triangle" fill="#8A6F52"></path>
        <path d="M359.575821,600.00367 L560.575821,486.167855 C585.033586,472.316266 614.966414,472.316266 639.424179,486.167855 L840.424179,600.00367 C865.500226,614.205422 881,640.796616 881,669.614977 L881,954.840077 C881,999.022857 845.18278,1034.84008 801,1034.84008 L399,1034.84008 C354.81722,1034.84008 319,999.022857 319,954.840077 L319,669.614977 C319,640.796616 334.499774,614.205422 359.575821,600.00367 Z" id="Rectangle" fill="#E2B484"></path>
        <rect id="Rectangle" fill="#8A6F52" transform="translate(439.796399, 548.993565) rotate(-35.000000) translate(-439.796399, -548.993565) " x="263.296399" y="506.493565" width="353" height="85"></rect>
        <rect id="Rectangle" fill="#8A6F52" transform="translate(760.796399, 548.993565) scale(-1, 1) rotate(-35.000000) translate(-760.796399, -548.993565) " x="584.296399" y="506.493565" width="353" height="85"></rect>
        <path d="M676,813 L728,813 C741.807119,813 753,824.192881 753,838 L753,1035 L753,1035 L651,1035 L651,838 C651,824.192881 662.192881,813 676,813 Z" id="Rectangle" fill="#6F4110"></path>
        <circle id="Oval" fill="#D8D8D8" cx="608" cy="430" r="199"></circle>
        <path d="M607.5,602 C702.769119,602 780,524.769119 780,429.5 C780,334.230881 702,398.167842 599.68546,423.407369 C497.37092,448.646896 435,334.230881 435,429.5 C435,524.769119 512.230881,602 607.5,602 Z" id="Oval" fill="#EA5959"></path>
        <path d="M607.059456,583 C686.069012,583 753,527.853706 753,463.840077 C753,399.826448 693.680122,497.739754 622.283654,479.647367 C550.887187,461.554981 464.560651,419.215591 464.560651,472.160752 C464.560651,525.105914 528.0499,583 607.059456,583 Z" id="Oval" fill="#D83B3B"></path>
        <rect id="Rectangle" fill="#D8D8D8" transform="translate(756.798990, 270.798990) rotate(-315.000000) translate(-756.798990, -270.798990) " x="682.79899" y="201.79899" width="148" height="138" rx="25"></rect>
        <rect id="Rectangle" fill="#8A6F52" transform="translate(789.679455, 237.918525) rotate(-315.000000) translate(-789.679455, -237.918525) " x="715.679455" y="215.418525" width="148" height="45" rx="22.5"></rect>
        <ellipse id="Oval" fill="#FFFFFF" transform="translate(524.965953, 299.748537) rotate(-39.000000) translate(-524.965953, -299.748537) " cx="524.965953" cy="299.748537" rx="51" ry="23.5"></ellipse>
        <rect id="Rectangle" fill="#6F4110" x="409" y="736" width="128" height="128" rx="25"></rect>
    </g>
</svg>