<?xml version="1.0" encoding="UTF-8"?>
<svg width="987px" height="987px" viewBox="0 0 987 987" version="1.1" xmlns="http://www.w3.org/2000/svg" xmlns:xlink="http://www.w3.org/1999/xlink">
    <title>Warrior</title>
    <g id="Artboard" stroke="none" stroke-width="1" fill="none" fill-rule="evenodd">
        <g id="Group-4" transform="translate(14.000000, 0.000000)">
            <path d="M413,940.555354 C687.494854,940.555354 712,907.759018 712,754.5 C712,601.240982 578.13314,477 413,477 C247.86686,477 114,601.240982 114,754.5 C114,907.759018 138.505146,940.555354 413,940.555354 Z" id="Oval" fill="#FFEEDA"></path>
            <g id="Group" transform="translate(42.000000, 0.000000)">
                <path d="M614.090626,6.8239329 C690.264774,36.0644486 690.057954,222.237763 727.374389,333.387871 C728.540883,336.862368 729.508103,340.063783 730.285044,343.004903 L730.288127,342.993803 C738.578537,367.188142 743,392.626322 743,418.874808 C743,579.865813 574.17001,634.335684 368.996226,634.335684 C163.822441,634.335684 0,579.865813 0,418.874808 C0,387.27086 6.40973659,356.8416 18.264811,328.343753 L18.2774414,328.352755 C53.9557425,216.70571 54.8769494,35.6272595 129.912181,6.8239329 C206.086328,-22.4165829 253.683979,47.0733254 333.419011,124.724514 C334.766161,126.036457 336.057759,127.330621 337.294928,128.607372 L337.279353,128.595034 C348.548289,127.787479 359.962726,127.374808 371.5,127.374808 C383.357176,127.374808 395.084609,127.810681 406.657695,128.663119 L406.644169,128.673155 C407.900689,127.375079 409.213503,126.058994 410.583795,124.724514 C490.318827,47.0733254 537.916478,-22.4165829 614.090626,6.8239329 Z" id="Combined-Shape" fill="#FFEEDA"></path>
                <path d="M576.895131,179.752235 C606.027888,179.752235 646.287115,189.329482 629.644654,153.24339 C613.002192,117.157297 606.027888,87.9037394 576.895131,87.9037394 C547.762374,87.9037394 536.044956,117.157297 524.145609,153.24339 C512.246261,189.329482 547.762374,179.752235 576.895131,179.752235 Z" id="Oval" fill="#FFDAAF" transform="translate(577.664233, 134.403739) scale(-1, 1) rotate(-21.000000) translate(-577.664233, -134.403739) "></path>
                <path d="M160.895131,179.752235 C190.027888,179.752235 230.287115,189.329482 213.644654,153.24339 C197.002192,117.157297 190.027888,87.9037394 160.895131,87.9037394 C131.762374,87.9037394 120.044956,117.157297 108.145609,153.24339 C96.2462614,189.329482 131.762374,179.752235 160.895131,179.752235 Z" id="Oval" fill="#FFDAAF" transform="translate(161.664233, 134.403739) rotate(-21.000000) translate(-161.664233, -134.403739) "></path>
                <circle id="Oval" fill="#6F6F6F" cx="282.5" cy="351.874808" r="25.5"></circle>
                <circle id="Oval" fill="#6F6F6F" cx="460.5" cy="351.874808" r="25.5"></circle>
                <path d="M322.684141,401.235843 C341.326016,400.210828 356.659349,393.515533 368.684141,381.149958 C383.983923,393.515533 399.525313,400.210828 415.308311,401.235843" id="Path-5" stroke="#979797" stroke-width="15" stroke-linecap="round"></path>
                <circle id="Oval" fill="#FBC7C7" cx="567" cy="462.374808" r="95"></circle>
                <circle id="Oval" fill="#FBC7C7" cx="162" cy="462.374808" r="95"></circle>
            </g>
            <path d="M282.5,986.569696 C325,986.569696 325,976.614237 325,949 C325,921.385763 305.972102,899 282.5,899 C259.027898,899 240,921.385763 240,949 C240,976.614237 240,986.569696 282.5,986.569696 Z" id="Oval" fill="#FFEEDA"></path>
            <path d="M527.5,986.569696 C570,986.569696 570,976.614237 570,949 C570,921.385763 550.972102,899 527.5,899 C504.027898,899 485,921.385763 485,949 C485,976.614237 485,986.569696 527.5,986.569696 Z" id="Oval" fill="#FFEEDA"></path>
            <ellipse id="Oval" fill="#FFEEDA" cx="712" cy="634.5" rx="114" ry="54.5"></ellipse>
            <ellipse id="Oval" fill="#FFEEDA" cx="114" cy="634.5" rx="114" ry="54.5"></ellipse>
            <rect id="Rectangle" fill="#BA7E37" transform="translate(433.639546, 672.408954) rotate(17.000000) translate(-433.639546, -672.408954) " x="125.639546" y="648.408954" width="616" height="48" rx="19"></rect>
            <rect id="Rectangle" fill="#BA7E37" transform="translate(390.246289, 669.777609) scale(-1, 1) rotate(17.000000) translate(-390.246289, -669.777609) " x="91.2462887" y="645.777609" width="598" height="48" rx="19"></rect>
            <ellipse id="Oval" fill="#A8A8A8" cx="134.5" cy="584" rx="54.5" ry="27"></ellipse>
            <ellipse id="Oval" fill="#A8A8A8" cx="657.5" cy="584" rx="54.5" ry="27"></ellipse>
            <g id="Group-2" transform="translate(873.886079, 513.763164) rotate(20.000000) translate(-873.886079, -513.763164) translate(779.386079, 311.922824)">
                <rect id="Rectangle" fill="#BA7E37" x="64" y="276.68068" width="61" height="127" rx="16"></rect>
                <path d="M49.7000088,75.5009622 L82.4600246,20.2908462 C86.405634,13.6413514 94.9946631,11.4494192 101.644158,15.3950286 C103.660262,16.5913239 105.34368,18.2747422 106.539975,20.2908462 L139.299991,75.5009622 C139.758198,76.2731732 140,77.1545257 140,78.0524472 L140,286.68068 L140,286.68068 L49,286.68068 L49,78.0524472 C49,77.1545257 49.2418021,76.2731732 49.7000088,75.5009622 Z" id="Rectangle" fill="#F4F4F4"></path>
                <rect id="Rectangle" fill="#D8D8D8" x="0" y="269.68068" width="189" height="44" rx="13"></rect>
            </g>
        </g>
    </g>
</svg>